<?xml version="1.0" encoding="UTF-8" standalone="no"?>
<svg
   xmlns:dc="http://purl.org/dc/elements/1.1/"
   xmlns:cc="http://creativecommons.org/ns#"
   xmlns:rdf="http://www.w3.org/1999/02/22-rdf-syntax-ns#"
   xmlns:svg="http://www.w3.org/2000/svg"
   xmlns="http://www.w3.org/2000/svg"
   xmlns:sodipodi="http://sodipodi.sourceforge.net/DTD/sodipodi-0.dtd"
   xmlns:inkscape="http://www.inkscape.org/namespaces/inkscape"
   viewBox="0 0 606.99957 164.99991"
   version="1.1"
   id="svg37"
   sodipodi:docname="fiserv forum.svg"
   inkscape:version="0.92.5 (2060ec1f9f, 2020-04-08)"
   width="606.99957"
   height="164.99991">
  <metadata
     id="metadata41">
    <rdf:RDF>
      <cc:Work
         rdf:about="">
        <dc:format>image/svg+xml</dc:format>
        <dc:type
           rdf:resource="http://purl.org/dc/dcmitype/StillImage" />
        <dc:title></dc:title>
      </cc:Work>
    </rdf:RDF>
  </metadata>
  <sodipodi:namedview
     pagecolor="#ffffff"
     bordercolor="#666666"
     borderopacity="1"
     objecttolerance="10"
     gridtolerance="10"
     guidetolerance="10"
     inkscape:pageopacity="0"
     inkscape:pageshadow="2"
     inkscape:window-width="1920"
     inkscape:window-height="1017"
     id="namedview39"
     showgrid="false"
     inkscape:pagecheckerboard="true"
     inkscape:zoom="1.0034481"
     inkscape:cx="630.05069"
     inkscape:cy="207.34219"
     inkscape:window-x="1912"
     inkscape:window-y="70"
     inkscape:window-maximized="1"
     inkscape:current-layer="svg37"
     fit-margin-top="0"
     fit-margin-left="0"
     fit-margin-right="0"
     fit-margin-bottom="0" />
  <defs
     id="defs2" />
  <g
     id="g2136"
     style="fill:none;fill-rule:evenodd"
     transform="matrix(0.73609623,0,0,0.7368984,-0.14013725,-0.02040213)">
    <path
       id="path2128"
       d="m 469.729,24.023 c 0,-14.192 4.259,-23.558 22.147,-23.558 h 14.308 v 14.191 h -7.823 c -5.394,0 -11.025,2.554 -11.025,11.637 v 40.561 h 19.902 V 81.045 H 487.336 V 221.568 H 469.729 V 81.045 H 449.798 V 66.854 h 19.931 V 24.023 m 87.766,70.958 c 0,-11.354 -4.54,-15.611 -11.641,-15.611 -7.097,0 -11.641,4.257 -11.641,15.611 v 98.493 c 0,11.351 4.544,15.609 11.641,15.609 7.101,0 11.641,-4.258 11.641,-15.609 z m -40.886,0 c 0,-23.558 14.196,-29.802 29.245,-29.802 15.049,0 29.248,6.244 29.248,29.802 v 98.493 c 0,23.556 -14.199,30.054 -29.248,30.054 -15.049,0 -29.245,-6.498 -29.245,-30.054 z m 78.629,-28.095 h 16.47 V 80.25 h 0.566 c 5.396,-8.23 14.723,-14.125 25.795,-14.125 v 18.134 c -17.037,0 -25.224,5.05 -25.224,21.227 v 116.09 H 595.238 V 66.886 m 113.561,154.69 h -16.471 v -11.409 h -0.566 c -3.974,6.526 -11.642,13.361 -20.73,13.361 -14.48,0 -20.725,-12.501 -20.725,-24.99 V 66.905 h 17.602 v 126.306 c 0,8.231 3.123,14.192 11.075,14.192 8.234,0 12.208,-7.949 12.208,-14.192 V 66.905 h 17.607 v 154.671 m 22.514,-154.69 h 16.47 v 11.243 h 0.567 c 5.395,-7.947 11.075,-12.955 20.444,-12.955 6.531,0 12.778,4.156 16.471,10.401 4.825,-5.96 10.506,-10.401 18.173,-10.401 14.479,0 21.01,10.795 21.01,23.283 V 221.576 H 806.846 V 94.417 c 0,-8.515 -2.273,-13.34 -8.804,-13.34 -7.097,0 -11.356,6.528 -11.356,14.191 V 221.576 H 769.079 V 94.417 c 0,-8.515 -2.271,-13.34 -8.803,-13.34 -7.097,0 -11.356,6.528 -11.356,14.191 V 221.576 H 731.313 V 66.886"
       inkscape:connector-curvature="0"
       style="fill:#fffffe" />
    <path
       id="path2130"
       d="m 416.72,221.568 h 33.437 V 188.12 H 416.72 Z"
       inkscape:connector-curvature="0"
       style="fill:#e15f29" />
    <g
       id="g2134"
       style="fill:#fffffe">
      <path
         id="path2132"
         d="M 358.828,66.94 375.714,193.691 392.579,66.94 h 26.315 L 394.281,221.568 H 356.867 L 332.514,66.94 h 26.314 m -343.685,0 H 0.552 V 87.489 H 15.143 V 221.568 H 40.785 V 87.489 H 58.8 V 66.94 H 40.785 V 35.508 c 0,-4.587 0.949,-8.096 3.162,-10.494 2.223,-2.388 5.627,-3.515 10.23,-3.515 h 4.62 V 0.465 h -9.28 c -11.398,0 -22.374,2.41 -27.598,7.374 -5.216,4.955 -6.776,12.654 -6.776,23.627 V 66.94 M 66.81,221.568 H 92.519 V 66.94 H 66.81 Z m 144.405,-121.35 c 0,-8.723 2.268,-17.754 14.286,-17.754 12.013,0 14.456,8.902 14.456,17.745 v 31.959 h -28.742 z m 0,52.788 h 53.592 v -47.652 c -0.066,-28.513 -13.775,-40.197 -39.736,-40.197 -27.01,0 -39.664,11.657 -39.664,40.381 v 78.313 c 0.075,26.132 15.898,39.642 39.649,39.642 23.748,0 39.685,-11.124 39.751,-39.642 v -12.383 h -24.832 l 0.033,14.675 c 0,10.463 -3.922,17.708 -14.434,17.708 -10.525,0 -14.359,-7.305 -14.359,-17.723 z m -60.894,-19.347 c -19.386,-17.07 -21.018,-19.387 -21.018,-32.004 0,-10.753 0.933,-17.296 10.591,-17.296 9.65,0 10.913,6.464 10.913,17.419 v 14.275 h 24.774 V 92.763 C 175.5,74.477 161.43,65.172 139.327,65.172 c -21.742,0 -35.923,7.238 -36.043,36.483 -0.018,4.967 0.006,4.967 0,3.051 0.042,9.193 0.084,23.757 22.808,43.258 l 6.509,5.578 c 16.744,14.118 18.582,15.826 18.501,32.615 -0.013,10.35 -0.645,18.197 -11.51,18.197 -10.864,0 -11.545,-7.904 -11.545,-12.784 V 171.787 H 102.04 v 20.416 c 0,25.115 16.343,31.332 37.522,31.332 21.193,0 37.564,-6.274 37.564,-38.597 v -2.687 c -0.057,-22.582 -4.141,-28.637 -26.805,-48.592 M 299.215,82.856 V 66.934 h -23.429 v 154.629 h 25.278 v -107.76 c -0.015,-8.332 2.702,-13.814 7.425,-17.055 4.473,-3.079 9.982,-4.126 16.983,-4.223 V 65.163 c -13.41,0.277 -19.191,2.925 -25.998,17.127 l -0.259,0.566"
         inkscape:connector-curvature="0" />
    </g>
  </g>
  <path
     style="opacity:1;vector-effect:none;fill:#000000;fill-opacity:1;stroke:#000000;stroke-width:0.15426551;stroke-linecap:butt;stroke-linejoin:miter;stroke-miterlimit:4;stroke-dasharray:none;stroke-dashoffset:0;stroke-opacity:1"
     d="M 10.970033,113.9124 V 64.581238 H 5.5235728 0.07713275 v -7.78912 -7.78913 H 5.4871928 10.897263 l 0.17894,-17.78518 c 0.16617,-16.51388 0.2547,-17.96465 1.2386,-20.29584 1.63689,-3.8783701 3.64063,-6.0174501 7.19755,-7.6837601 4.42313,-2.07208 10.08622,-3.04710003 17.69817,-3.04710003 h 6.43825 V 8.2398679 16.288638 h -3.69003 c -4.29951,0 -6.95795,1.18628 -8.54639,3.81369 -0.896,1.48206 -1.00609,2.94172 -1.15177,15.26967 l -0.16108,13.63099 h 6.77463 6.77464 v 7.78913 7.78912 h -6.74323 -6.74324 v 49.331162 49.33116 h -9.59613 -9.59614 z"
     id="path2149"
     inkscape:connector-curvature="0" />
  <path
     style="opacity:1;vector-effect:none;fill:#d13239;fill-opacity:1;stroke:#000000;stroke-width:0.10908219;stroke-linecap:butt;stroke-linejoin:miter;stroke-miterlimit:4;stroke-dasharray:none;stroke-dashoffset:0;stroke-opacity:1"
     d="M 49.038963,106.27004 V 48.989478 h 9.53637 9.53637 v 57.280562 57.28056 h -9.53637 -9.53637 z"
     id="path2151"
     inkscape:connector-curvature="0" />
  <path
     style="opacity:1;vector-effect:none;fill:#000000;fill-opacity:1;stroke:#000000;stroke-width:0.10908219;stroke-linecap:butt;stroke-linejoin:miter;stroke-miterlimit:4;stroke-dasharray:none;stroke-dashoffset:0;stroke-opacity:1"
     d="m 96.972763,164.61932 c -9.75725,-0.80586 -16.68755,-4.58892 -19.67731,-10.74133 -2.08298,-4.28639 -2.29494,-5.7385 -2.48724,-17.03995 l -0.17649,-10.37293 h 9.72747 9.72748 l 0.12503,8.9042 c 0.12475,8.88547 0.12716,8.90857 1.14811,10.98985 0.86482,1.763 1.31572,2.23165 2.91459,3.02926 3.500117,1.74608 8.526357,1.04927 10.493947,-1.45483 1.57591,-2.00565 2.04399,-4.61957 2.03617,-11.37094 -0.0131,-11.32889 -0.40747,-11.97892 -14.820047,-24.42872 -12.08529,-10.43945 -16.73085,-16.465152 -19.15862,-24.850382 -0.75067,-2.59276 -0.82832,-3.63523 -0.82832,-11.12251 0,-9.55054 0.4323,-12.22603 2.7643,-17.10881 2.58681,-5.41626 7.00395,-8.75643 13.55757,-10.25198 5.66167,-1.29201 15.661117,-1.10996 21.498187,0.39139 5.33274,1.37164 10.60083,5.01231 12.87662,8.89877 2.20096,3.75866 2.42386,5.21309 2.58654,16.87727 l 0.14979,10.74011 h -9.38598 -9.38599 v -7.27623 c 0,-10.55721 -0.7166,-13.41349 -3.80277,-15.15743 -1.187,-0.67077 -2.07438,-0.85706 -4.09301,-0.85926 -4.330447,-0.004 -6.341907,1.77622 -7.155847,6.33572 -0.59667,3.34239 -0.28605,11.43411 0.52463,13.6663 1.10987,3.0561 4.263857,6.57674 12.717077,14.19543 19.62015,17.683232 21.3126,20.669322 21.39422,37.747232 0.0421,8.81585 -0.29892,11.68684 -1.94104,16.33965 -1.87104,5.30137 -5.09717,9.01775 -9.75742,11.24016 -3.36267,1.60362 -6.04834,2.25267 -11.18689,2.70357 -4.64876,0.40792 -5.17412,0.40673 -10.384757,-0.0236 z"
     id="path2153"
     inkscape:connector-curvature="0" />
  <path
     style="opacity:1;vector-effect:none;fill:#000000;fill-opacity:1;stroke:#000000;stroke-width:0.10908219;stroke-linecap:butt;stroke-linejoin:miter;stroke-miterlimit:4;stroke-dasharray:none;stroke-dashoffset:0;stroke-opacity:1"
     d="m 49.210753,163.09795 c -0.0972,-0.25592 -0.13442,-25.9937 -0.0826,-57.19509 l 0.0942,-56.729792 h 9.35298 9.35297 v 57.096972 57.09697 l -9.27036,0.0981 c -7.2182,0.0764 -9.30951,-0.005 -9.44719,-0.36718 z"
     id="path2155"
     inkscape:connector-curvature="0" />
  <path
     style="opacity:1;vector-effect:none;fill:#000000;fill-opacity:1;stroke:#000000;stroke-width:0.10908219;stroke-linecap:butt;stroke-linejoin:miter;stroke-miterlimit:4;stroke-dasharray:none;stroke-dashoffset:0;stroke-opacity:1"
     d="m 161.81301,164.61363 c -12.57611,-0.93092 -21.12179,-7.65462 -24.45179,-19.23859 l -0.84442,-2.93746 V 105.90286 69.368138 l 0.82144,-3.22573 c 2.41451,-9.4816 7.79335,-14.86268 17.22978,-17.23695 2.79398,-0.70298 4.22151,-0.81184 10.74127,-0.81906 6.62777,-0.007 7.90861,0.0905 10.80528,0.82594 7.58707,1.92616 12.63402,5.77337 15.51521,11.827 3.07362,6.45795 3.38898,9.54065 3.38898,33.12864 v 19.011352 h -19.80632 -19.8063 l 0.003,12.57603 c 0.002,7.04176 0.17283,13.62535 0.3892,14.9605 0.70424,4.34542 2.32735,6.97342 5.29317,8.57022 1.1902,0.64079 2.0921,0.79039 4.77798,0.79253 4.19911,0.003 6.34358,-0.95005 8.14127,-3.61947 1.8412,-2.73407 2.03687,-3.82064 2.20752,-12.25857 l 0.15778,-7.80264 h 9.32146 9.32146 l -0.003,5.78313 c -0.005,9.87175 -0.77481,14.26674 -3.45744,19.74297 -4.68133,9.55623 -15.03666,14.07835 -29.7453,12.9896 z m 14.41358,-81.384332 c -0.11061,-12.09984 -0.20989,-14.11185 -0.7814,-15.83397 -0.82144,-2.47525 -3.42742,-5.19598 -5.59365,-5.83999 -1.90865,-0.56742 -6.03943,-0.57929 -7.89521,-0.0227 -3.24043,0.97191 -5.39381,4.03946 -6.16173,8.77752 -0.2106,1.29943 -0.38416,7.85659 -0.38569,14.57144 l -0.003,12.20884 h 10.47356 10.47357 z"
     id="path2157"
     inkscape:connector-curvature="0" />
  <path
     style="opacity:1;vector-effect:none;fill:#000000;fill-opacity:1;stroke:#000000;stroke-width:0.10908219;stroke-linecap:butt;stroke-linejoin:miter;stroke-miterlimit:4;stroke-dasharray:none;stroke-dashoffset:0;stroke-opacity:1"
     d="M 202.7212,106.27004 V 48.989478 h 8.80281 8.8028 v 5.40827 5.40828 l 1.64748,-2.81745 c 1.93983,-3.31743 4.61589,-6.12295 6.89302,-7.22649 2.08295,-1.00944 6.08393,-1.8596 8.79002,-1.86778 l 2.109,-0.007 v 10.22678 10.22678 l -3.20935,0.21665 c -7.47091,0.50436 -12.51074,3.97897 -14.18688,9.78084 -0.50858,1.76043 -0.57616,6.8747 -0.57616,43.602992 v 41.60863 h -9.53636 -9.53638 z"
     id="path2159"
     inkscape:connector-curvature="0" />
  <path
     style="opacity:1;vector-effect:none;fill:#000000;fill-opacity:1;stroke:#000000;stroke-width:0.10908219;stroke-linecap:butt;stroke-linejoin:miter;stroke-miterlimit:4;stroke-dasharray:none;stroke-dashoffset:0;stroke-opacity:1"
     d="m 262.33891,163.09163 c -0.1946,-0.61612 -17.81583,-113.058392 -17.80942,-113.643172 0.004,-0.35563 2.21434,-0.45891 9.81648,-0.45864 l 9.81146,3.3e-4 6.05192,45.51196 c 3.32856,25.031592 6.14869,45.396332 6.26695,45.254992 0.18032,-0.21552 12.12839,-89.672442 12.08635,-90.492232 -0.008,-0.15146 4.44229,-0.27539 9.88903,-0.27539 5.78061,0 9.90315,0.14058 9.90315,0.33767 0,0.18572 -4.04321,25.75544 -8.98491,56.821592 -4.9417,31.06615 -8.98549,56.69045 -8.9862,56.94289 -0.002,0.67035 -27.83308,0.67035 -28.04481,0 z"
     id="path2161"
     inkscape:connector-curvature="0" />
  <path
     style="opacity:1;vector-effect:none;fill:#000000;fill-opacity:1;stroke:#000000;stroke-width:0.07713275;stroke-linecap:butt;stroke-linejoin:miter;stroke-miterlimit:4;stroke-dasharray:none;stroke-dashoffset:0;stroke-opacity:1"
     d="M 345.53164,111.61688 V 59.819158 h -7.39162 -7.39162 v -5.32257 -5.32257 h 7.37884 7.37885 l 0.0934,-18.49918 c 0.0831,-16.46343 0.14239,-18.68238 0.53826,-20.16393 1.11,-4.1540801 3.28707,-7.0516401 6.40357,-8.5227801 3.03733,-1.43375003 4.8117,-1.68737003 12.76611,-1.82465003 l 7.19709,-0.12424 V 5.5232579 11.007278 h -3.88059 c -3.24139,0 -4.10822,0.0853 -5.26252,0.51761 -1.65265,0.61901 -3.05812,1.98451 -3.87668,3.76641 l -0.59634,1.2982 -0.0723,16.29226 -0.0723,16.29226 h 7.26942 7.26942 v 5.32257 5.32257 h -7.26195 -7.26194 v 51.797722 51.79771 h -6.61355 -6.61355 z"
     id="path2163"
     inkscape:connector-curvature="0" />
  <path
     style="opacity:1;vector-effect:none;fill:#000000;fill-opacity:1;stroke:#000000;stroke-width:0.07713275;stroke-linecap:butt;stroke-linejoin:miter;stroke-miterlimit:4;stroke-dasharray:none;stroke-dashoffset:0;stroke-opacity:1"
     d="m 395.75129,164.32485 c -7.7195,-1.60135 -12.71476,-6.04773 -14.65049,-13.04068 -1.08694,-3.92659 -1.10938,-4.94989 -1.02395,-46.67751 l 0.0819,-39.984202 0.69498,-2.52467 c 2.0895,-7.59065 6.57534,-11.87022 14.2716,-13.61536 2.78276,-0.63099 9.98131,-0.63263 12.9109,-0.003 6.28629,1.35117 10.42321,4.3785 12.835,9.39239 1.23186,2.56092 1.78588,4.55589 2.19727,7.91214 0.38456,3.13735 0.36811,77.990792 -0.0178,81.143572 -0.66066,5.397 -2.35226,9.24914 -5.4183,12.33872 -2.2308,2.24792 -4.94461,3.75921 -8.42905,4.69407 -2.70849,0.72667 -10.66653,0.94229 -13.452,0.36447 z m 9.05249,-10.94972 c 2.65186,-0.90456 4.44314,-3.5828 5.05428,-7.55688 0.17902,-1.16412 0.24206,-14.73581 0.18904,-40.69231 -0.0861,-42.152772 -0.008,-39.822902 -1.42991,-42.580582 -1.58758,-3.07876 -5.41066,-4.61169 -9.12539,-3.65898 -2.80688,0.71987 -4.38728,2.25855 -5.50559,5.36022 l -0.60356,1.67405 -0.0749,39.335102 c -0.0527,27.66799 0.01,39.83568 0.20962,41.02275 0.64335,3.81628 2.58532,6.41769 5.43972,7.28691 1.20757,0.36772 4.52755,0.25968 5.84668,-0.19028 z"
     id="path2165"
     inkscape:connector-curvature="0" />
  <path
     style="opacity:1;vector-effect:none;fill:#000000;fill-opacity:1;stroke:#000000;stroke-width:0.07713275;stroke-linecap:butt;stroke-linejoin:miter;stroke-miterlimit:4;stroke-dasharray:none;stroke-dashoffset:0;stroke-opacity:1"
     d="M 437.86203,106.2943 V 49.174018 h 6.22452 6.22453 v 4.953 4.95301 l 0.94007,-1.25317 c 1.4144,-1.8855 2.12188,-2.60606 4.18533,-4.26267 3.46488,-2.78174 7.84866,-4.53756 12.05687,-4.8291 l 2.26935,-0.15721 v 6.73674 6.73675 l -3.56613,0.30264 c -8.68489,0.73703 -12.60753,3.32211 -14.49501,9.55244 -0.44156,1.45756 -0.47202,4.05343 -0.54571,46.525922 l -0.0781,44.98222 h -6.60788 -6.60788 z"
     id="path2167"
     inkscape:connector-curvature="0" />
  <path
     style="opacity:1;vector-effect:none;fill:#000000;fill-opacity:1;stroke:#000000;stroke-width:0.07713275;stroke-linecap:butt;stroke-linejoin:miter;stroke-miterlimit:4;stroke-dasharray:none;stroke-dashoffset:0;stroke-opacity:1"
     d="m 489.65298,164.32312 c -3.81119,-1.04887 -7.1412,-3.90089 -8.94274,-7.65911 -1.25859,-2.62556 -1.77853,-4.54052 -2.12379,-7.82199 -0.15875,-1.50895 -0.25775,-20.907 -0.26054,-51.050852 l -0.004,-48.61715 h 6.60823 6.60823 l 0.0702,48.09788 0.0701,48.097872 0.59059,1.74162 c 0.79906,2.35638 1.94523,3.79128 3.77787,4.72955 1.27638,0.65347 1.78761,0.76452 3.51955,0.76452 1.67594,0 2.27415,-0.12141 3.46001,-0.70223 2.38813,-1.16967 4.23801,-3.57353 5.02781,-6.53346 0.28292,-1.06026 0.34696,-9.99433 0.34948,-48.746972 l 0.003,-47.44878 h 6.61356 6.61355 v 57.120282 57.12029 h -6.08856 -6.08858 l -0.0711,-4.31633 -0.0711,-4.31634 -0.96866,1.40872 c -1.38,2.00692 -4.26069,4.78113 -6.33297,6.09888 -2.6853,1.70757 -5.22869,2.42847 -8.46757,2.40005 -1.45475,-0.0127 -3.20623,-0.17767 -3.89216,-0.36645 z"
     id="path2169"
     inkscape:connector-curvature="0" />
  <path
     style="opacity:1;vector-effect:none;fill:#000000;fill-opacity:1;stroke:#000000;stroke-width:0.07713275;stroke-linecap:butt;stroke-linejoin:miter;stroke-miterlimit:4;stroke-dasharray:none;stroke-dashoffset:0;stroke-opacity:1"
     d="M 537.97307,106.2943 V 49.174018 h 6.2181 6.21809 l 0.0713,4.18655 0.0712,4.18655 1.02343,-1.48835 c 2.44419,-3.55454 6.00321,-6.42593 9.20239,-7.42439 5.41691,-1.69064 10.46388,-0.4692 14.41223,3.48796 1.01797,1.02025 2.03625,2.14707 2.26283,2.50407 l 0.41198,0.6491 1.90487,-1.91268 c 4.15577,-4.17278 7.71494,-5.68955 12.66811,-5.39863 4.37662,0.25706 7.62542,1.71963 10.20438,4.59392 2.28498,2.54665 3.60129,5.84301 4.05493,10.15455 0.15824,1.50399 0.25729,21.14207 0.26007,51.565492 l 0.004,49.13643 h -6.61356 -6.61355 v -47.19595 c 0,-31.474632 -0.091,-47.928832 -0.27304,-49.396072 -0.5909,-4.76138 -2.44324,-6.85301 -6.08115,-6.86674 -4.29725,-0.0162 -7.49432,3.29176 -8.16244,8.44561 -0.15284,1.17897 -0.25372,20.08834 -0.2586,48.473102 l -0.008,46.54005 h -6.61356 -6.61354 v -48.40964 c 0,-49.426642 -0.011,-50.012732 -0.9689,-51.940312 -1.08831,-2.18988 -2.62086,-3.09056 -5.25563,-3.08871 -1.5884,10e-4 -2.183,0.12527 -3.24193,0.677 -1.97519,1.0291 -3.36578,2.72875 -4.35472,5.32259 l -0.57303,1.50296 -0.0695,47.968062 -0.0696,47.96805 h -6.60886 -6.60887 z"
     id="path2171"
     inkscape:connector-curvature="0" />
</svg>
